<svg width="97" height="97" viewBox="0 0 97 97" fill="none" xmlns="http://www.w3.org/2000/svg">
<circle cx="48.3667" cy="48.4095" r="28.934" transform="rotate(29.0976 48.3667 48.4095)" fill="#FBFBFB"/>
<path d="M54.904 35.2282C56.3882 36.0542 57.412 37.1616 57.9755 38.5506C58.5575 39.9499 58.6699 41.4506 58.3127 43.0531L60.7117 38.7427L63.2441 40.1521L53.6828 57.3322C52.8146 58.8922 51.7466 60.1124 50.479 60.993C49.2114 61.8736 47.851 62.3532 46.3979 62.4317C44.9449 62.5101 43.504 62.1518 42.0755 61.3568C40.0161 60.2107 38.6455 58.7221 37.9637 56.8909C37.2704 55.0803 37.2673 53.1429 37.9543 51.0789L40.459 52.4728C40.1275 53.767 40.1929 54.9593 40.6551 56.0499C41.1245 57.1713 42.0085 58.0935 43.3072 58.8163C44.6801 59.5803 46.086 59.7176 47.5248 59.228C48.9708 58.7692 50.1793 57.6675 51.1503 55.9228L53.7034 51.3352C52.5298 52.4833 51.1952 53.1787 49.6993 53.4216C48.2219 53.6747 46.7411 53.3882 45.2569 52.5622C43.9026 51.8085 42.8908 50.7884 42.2217 49.502C41.5526 48.2155 41.2717 46.7554 41.3792 45.1215C41.5166 43.4774 42.0765 41.7728 43.0589 40.0076C44.0413 38.2424 45.1949 36.8682 46.5197 35.8849C47.8631 34.912 49.2576 34.3709 50.7036 34.2616C52.1495 34.1522 53.5496 34.4744 54.904 35.2282ZM54.2396 38.1248C52.6811 37.2574 51.1204 37.1147 49.5573 37.6965C48.0243 38.268 46.7208 39.5185 45.647 41.448C44.5732 43.3775 44.1917 45.1545 44.5025 46.7791C44.8433 48.3936 45.7929 49.6345 47.3513 50.5018C48.3531 51.0594 49.3865 51.2985 50.4513 51.219C51.5347 51.1498 52.556 50.7773 53.5153 50.1014C54.4861 49.405 55.3141 48.4411 55.9995 47.2095C56.6849 45.978 57.0677 44.7663 57.1479 43.5742C57.2282 42.3822 57.0065 41.3179 56.4828 40.3813C55.9892 39.4345 55.2414 38.6823 54.2396 38.1248Z" fill="black"/>
<mask id="mask0_2291_71" style="mask-type:alpha" maskUnits="userSpaceOnUse" x="37" y="34" width="27" height="29">
<path d="M54.9046 35.2326C56.3897 36.0591 57.4143 37.1669 57.9785 38.5562C58.5611 39.9558 58.6741 41.4568 58.3172 43.0593L60.7159 38.7491L63.25 40.1594L53.6892 57.3385C52.821 58.8984 51.7529 60.1185 50.485 60.9988C49.217 61.8791 47.8562 62.3584 46.4024 62.4364C44.9487 62.5145 43.5072 62.1557 42.0777 61.3602C40.0171 60.2134 38.6454 58.7242 37.9627 56.8926C37.2686 55.0816 37.2649 53.1441 37.9517 51.08L40.4579 52.4748C40.1266 53.769 40.1924 54.9614 40.6551 56.0523C41.125 57.174 42.0097 58.0965 43.3092 58.8197C44.683 59.5843 46.0896 59.7219 47.5289 59.2327C48.9755 58.7743 50.1842 57.6728 51.1551 55.9282L53.7081 51.3409C52.5343 52.4888 51.1992 53.1839 49.7027 53.4263C48.2247 53.6791 46.7432 53.3921 45.2581 52.5656C43.9029 51.8114 42.8903 50.7909 42.2206 49.5042C41.5508 48.2174 41.2694 46.757 41.3764 45.123C41.5134 43.4788 42.0731 41.7742 43.0554 40.0091C44.0377 38.244 45.1915 36.8699 46.5166 35.887C47.8603 34.9143 49.2554 34.3736 50.7019 34.2646C52.1485 34.1557 53.5493 34.4783 54.9046 35.2326ZM54.2407 38.1292C52.6813 37.2614 51.1198 37.1181 49.5562 37.6996C48.0226 38.2707 46.7189 39.521 45.6451 41.4504C44.5714 43.3797 44.1902 45.1568 44.5016 46.7817C44.843 48.3964 45.7934 49.6377 47.3528 50.5056C48.3553 51.0635 49.3891 51.3029 50.4544 51.2237C51.5383 51.1548 52.56 50.7826 53.5195 50.107C54.4905 49.4108 55.3187 48.447 56.0041 47.2155C56.6894 45.984 57.072 44.7723 57.152 43.5801C57.2319 42.388 57.0098 41.3236 56.4856 40.3867C55.9915 39.4396 55.2432 38.6872 54.2407 38.1292Z" fill="black"/>
</mask>
<g mask="url(#mask0_2291_71)">
<path d="M56.0863 57.2299L47.0571 55.1357L45.9866 58.903L55.0159 60.9971L56.0863 57.2299Z" fill="#FF7E21" stroke="#FBFBFB" stroke-width="2"/>
</g>
<path d="M55.5956 9.88086C55.3066 10.2949 54.9023 10.6055 54.3828 10.8125C53.8671 11.0156 53.2656 11.1172 52.5781 11.1172C51.8828 11.1172 51.2656 10.9551 50.7265 10.6309C50.1874 10.3027 49.7695 9.83789 49.4726 9.23633C49.1796 8.63477 49.0292 7.9375 49.0214 7.14453V6.40039C49.0214 5.11523 49.3203 4.11914 49.9179 3.41211C50.5195 2.70508 51.3632 2.35156 52.4492 2.35156C53.3398 2.35156 54.0566 2.58008 54.5995 3.03711C55.1425 3.49023 55.4745 4.13477 55.5956 4.9707H54.4706C54.2597 3.8418 53.5878 3.27734 52.455 3.27734C51.7011 3.27734 51.1288 3.54297 50.7382 4.07422C50.3515 4.60156 50.1562 5.36719 50.1523 6.37109V7.06836C50.1523 8.02539 50.371 8.78711 50.8085 9.35352C51.246 9.91602 51.8378 10.1973 52.5839 10.1973C53.0058 10.1973 53.3749 10.1504 53.6913 10.0566C54.0078 9.96289 54.2695 9.80469 54.4765 9.58203V7.66602L52.5019 7.66602V6.75195L55.5956 6.75195V9.88086Z" fill="white"/>
<path d="M61.318 13.3105L60.2842 12.9845L62.9906 4.40105L64.0244 4.72701L61.318 13.3105Z" fill="white"/>
<path d="M72.2501 19.7551C71.5461 19.2622 71.1347 18.6308 71.0158 17.8608C70.8991 17.0876 71.1118 16.3139 71.654 15.5395L71.7683 15.3763C72.129 14.8612 72.5481 14.4703 73.0256 14.2038C73.5086 13.9364 74.0056 13.8123 74.5166 13.8315C75.0331 13.8498 75.4977 14.0035 75.9105 14.2925C76.5857 14.7653 76.9547 15.3551 77.0177 16.062C77.0806 16.769 76.8219 17.5368 76.2416 18.3655L75.9829 18.7351L72.4647 16.2717C72.119 16.7926 71.9776 17.3111 72.0406 17.8273C72.109 18.3426 72.364 18.7548 72.8056 19.064C73.1192 19.2835 73.4296 19.4055 73.7368 19.4299C74.044 19.4542 74.3531 19.418 74.6642 19.321L74.9108 20.1232C74.0073 20.4872 73.1204 20.3645 72.2501 19.7551ZM75.3997 15.0221C75.0413 14.7712 74.6487 14.6917 74.2217 14.7838C73.7971 14.8727 73.3913 15.1322 73.0043 15.5623L75.6058 17.3838L75.6528 17.3166C75.9431 16.8475 76.0658 16.4136 76.0207 16.0149C75.9779 15.6129 75.7709 15.282 75.3997 15.0221Z" fill="white"/>
<path d="M80.4893 29.2053C80.5504 29.0797 80.6962 28.9038 80.9265 28.6778C80.2045 28.5967 79.6306 28.2788 79.205 27.7241C78.8245 27.2282 78.6513 26.7137 78.6852 26.1805C78.7247 25.648 78.9598 25.2164 79.3906 24.8859C79.9143 24.484 80.4725 24.3709 81.0651 24.5464C81.6631 24.7226 82.2392 25.1718 82.7933 25.8939L83.4353 26.7306L83.8305 26.4274C84.1311 26.1967 84.3007 25.9238 84.3395 25.6085C84.3813 25.2908 84.2678 24.9569 83.9991 24.6067C83.7637 24.2999 83.4889 24.1021 83.1746 24.0134C82.8603 23.9246 82.5931 23.9647 82.3731 24.1335L81.7097 23.2689C81.9607 23.0763 82.2702 22.9791 82.6382 22.9774C83.0116 22.9764 83.383 23.0755 83.7524 23.2746C84.1242 23.4767 84.4504 23.7607 84.731 24.1264C85.1757 24.7059 85.3784 25.2716 85.3391 25.8237C85.303 26.3733 85.0356 26.8493 84.5368 27.2517L82.2219 29.0281C81.7601 29.3824 81.438 29.7231 81.2557 30.0501L81.1813 30.1072L80.4893 29.2053ZM80.0497 27.2753C80.2566 27.5449 80.5225 27.7471 80.8474 27.8818C81.1724 28.0165 81.488 28.0525 81.7944 27.9897L82.8264 27.1979L82.3092 26.5238C81.5007 25.4702 80.788 25.1799 80.1713 25.6532C79.9017 25.86 79.7599 26.1116 79.746 26.4079C79.7321 26.7041 79.8333 26.9933 80.0497 27.2753Z" fill="white"/>
<path d="M89.5987 34.8618L88.948 35.1298C89.6208 35.3796 90.0922 35.8752 90.3621 36.6167C90.6654 37.4499 90.5524 38.1333 90.0233 38.6668C90.3817 38.7608 90.7065 38.9335 90.9976 39.1851C91.29 39.4403 91.5151 39.7845 91.6727 40.2176C92.1483 41.5244 91.6982 42.4406 90.3224 42.9663L86.3306 44.4192L85.9598 43.4006L89.8911 41.9698C90.3169 41.8148 90.599 41.6019 90.7374 41.3312C90.8795 41.0592 90.8671 40.6938 90.7001 40.2349C90.5625 39.8569 90.3344 39.5844 90.016 39.4177C89.7012 39.2495 89.3456 39.2148 88.9492 39.3133L84.9959 40.7522L84.6231 39.7281L88.5269 38.3073C89.3932 37.992 89.672 37.4104 89.3634 36.5624C89.1202 35.8944 88.6694 35.5409 88.0109 35.5021L83.6612 37.0852L83.2905 36.0666L89.248 33.8983L89.5987 34.8618Z" fill="white"/>
<path d="M86.9167 49.1441L91.7285 50.412L91.7792 51.5711L84.3566 49.3439C83.2857 48.9957 82.7315 48.3924 82.694 47.5338L82.7026 47.3282L82.7611 46.9209L83.6392 46.8826L83.6285 47.1763C83.6445 47.5431 83.7311 47.8248 83.8883 48.0212C84.0456 48.2216 84.3243 48.3795 84.7242 48.495L85.3786 48.7069L91.5435 46.1739L91.5951 47.3563L86.9167 49.1441Z" fill="white"/>
<path d="M80.4858 72.0801L82.0221 69.6686L82.7683 70.144L81.232 72.5555L80.4858 72.0801Z" fill="white"/>
<path d="M56.7635 87.3355C56.5156 86.4615 56.5573 85.6895 56.8886 85.0195C57.2179 84.3546 57.8119 83.8443 58.6708 83.4885C59.6019 83.1029 60.4873 83.1273 61.3268 83.5617C62.1627 83.9977 62.8124 84.775 63.2758 85.8938L63.5897 86.6516C63.8932 87.3842 64.0301 88.0823 64.0005 88.7457C63.9672 89.4105 63.7719 89.9904 63.4145 90.4851C63.0586 90.9835 62.5648 91.3634 61.9333 91.625C61.096 91.9719 60.3276 92.0153 59.628 91.7554C58.9299 91.4992 58.3682 90.975 57.9429 90.183L58.9877 89.7502C59.338 90.3408 59.723 90.714 60.1428 90.8699C60.5589 91.0274 61.0377 90.994 61.579 90.7697C62.243 90.4947 62.6629 90.0333 62.8385 89.3855C63.0105 88.7392 62.9089 87.9632 62.5337 87.0573L62.2176 86.294C61.8633 85.4387 61.4029 84.8325 60.8363 84.4752C60.2697 84.1179 59.6653 84.0724 59.0229 84.3384C58.4455 84.5776 58.0572 84.8907 57.8581 85.2776C57.6568 85.6696 57.6402 86.2113 57.8082 86.9028L56.7635 87.3355Z" fill="white"/>
<path d="M48.1233 90.4098C48.2891 90.4228 48.4673 90.4209 48.658 90.4042C49.3663 90.3422 49.8205 89.9986 50.0206 89.3733L49.6284 84.8904L50.7083 84.796L51.2608 91.1117L50.2102 91.2036L50.1288 90.4755C49.8241 91.0707 49.3468 91.3968 48.6969 91.4536C48.4868 91.472 48.3248 91.4587 48.2111 91.4138L48.1233 90.4098Z" fill="white"/>
<path d="M36.9688 83.1289C37.8078 83.3149 38.4296 83.7408 38.8342 84.4066C39.2378 85.0763 39.3374 85.8726 39.1328 86.7955L39.0897 86.99C38.9535 87.604 38.7159 88.1254 38.3767 88.5544C38.0329 88.9863 37.6212 89.2911 37.1417 89.4689C36.6575 89.6496 36.1695 89.6855 35.6775 89.5764C34.8728 89.398 34.3061 88.9943 33.9775 88.3653C33.6488 87.7363 33.5939 86.9279 33.8129 85.9402L33.9106 85.4997L38.1037 86.4293C38.2237 85.8157 38.1558 85.2825 37.9001 84.8297C37.6398 84.3799 37.2464 84.0966 36.7201 83.98C36.3464 83.8971 36.013 83.9032 35.7198 83.9983C35.4267 84.0933 35.1549 84.2451 34.9046 84.4537L34.3698 83.807C35.0652 83.1249 35.9315 82.8989 36.9688 83.1289ZM35.8703 88.7069C36.2974 88.8016 36.6905 88.7247 37.0497 88.4762C37.408 88.2316 37.6836 87.8366 37.8766 87.2912L34.7761 86.6038L34.7583 86.6839C34.6696 87.2284 34.7224 87.6762 34.9166 88.0273C35.11 88.3823 35.4279 88.6088 35.8703 88.7069Z" fill="white"/>
<path d="M25.7402 77.5499C25.7318 77.6894 25.6645 77.9076 25.5381 78.2045C26.2362 78.0032 26.8881 78.0773 27.4936 78.4269C28.0349 78.7394 28.3918 79.1485 28.5645 79.6541C28.7318 80.1612 28.6797 80.6498 28.4083 81.1201C28.0782 81.6918 27.6058 82.0099 26.9912 82.0745C26.3712 82.1406 25.6671 81.9461 24.8788 81.491L23.9655 80.9636L23.7164 81.395C23.527 81.7231 23.4747 82.0402 23.5596 82.3463C23.6425 82.6558 23.8751 82.9209 24.2574 83.1416C24.5923 83.335 24.9219 83.4125 25.2462 83.3742C25.5705 83.3359 25.802 83.1967 25.9407 82.9565L26.8845 83.5014C26.7263 83.7755 26.4776 83.9837 26.1382 84.1261C25.7936 84.2699 25.4125 84.3205 24.9951 84.2779C24.5742 84.2334 24.1642 84.0959 23.765 83.8655C23.1324 83.5002 22.7286 83.0551 22.5536 82.5301C22.3767 82.0084 22.4416 81.4663 22.7484 80.9037L24.2074 78.3767C24.4984 77.8726 24.6656 77.4346 24.7089 77.0627L24.7558 76.9815L25.7402 77.5499ZM26.8849 79.1648C26.5906 78.9949 26.2676 78.9099 25.9158 78.9097C25.5641 78.9096 25.2587 78.9972 24.9996 79.1724L24.3493 80.2989L25.085 80.7237C26.2352 81.3878 27.0047 81.3832 27.3933 80.71C27.5633 80.4157 27.598 80.129 27.4975 79.85C27.3969 79.5709 27.1928 79.3425 26.8849 79.1648Z" fill="white"/>
<path d="M13.7231 76.5151L14.855 75.478L14.0553 74.6053L14.6731 74.0393L15.4727 74.9119L18.3714 72.2557C18.5586 72.0842 18.6641 71.916 18.6879 71.7511C18.7088 71.5889 18.6335 71.4142 18.462 71.227C18.3775 71.1349 18.2441 71.024 18.0618 70.8944L18.7098 70.3006C18.96 70.458 19.1762 70.6361 19.3583 70.8349C19.6855 71.192 19.8243 71.5602 19.7745 71.9396C19.7248 72.3189 19.5012 72.6907 19.1038 73.0549L16.205 75.7111L16.9849 76.5621L16.3671 77.1282L15.5873 76.2772L14.4555 77.3143L13.7231 76.5151Z" fill="white"/>
<path d="M13.9898 61.7298L14.448 62.7122L8.7021 65.3916L8.24399 64.4091L13.9898 61.7298ZM7.21516 66.1819C7.05585 66.2562 6.89904 66.2711 6.74472 66.2267C6.58874 66.1788 6.46618 66.0592 6.37704 65.868C6.28789 65.6769 6.27508 65.5061 6.33861 65.3558C6.40213 65.2055 6.51355 65.0932 6.67286 65.0189C6.83217 64.9446 6.98804 64.9323 7.14048 64.9819C7.29291 65.0315 7.4137 65.1519 7.50284 65.3431C7.59199 65.5342 7.60657 65.7042 7.54659 65.8528C7.48495 65.9979 7.37448 66.1076 7.21516 66.1819Z" fill="white"/>
<path d="M8.4194 52.6464C7.80362 52.7275 7.234 52.6804 6.71054 52.505C6.18656 52.3258 5.76267 52.0388 5.43885 51.6441C5.11452 51.2455 4.9159 50.7693 4.84298 50.2155C4.7303 49.3596 4.93556 48.6293 5.45877 48.0246C5.98146 47.416 6.73465 47.0469 7.71835 46.9174L7.79387 46.9075C8.40578 46.8269 8.97127 46.8727 9.49035 47.0447C10.005 47.2133 10.4268 47.4986 10.7555 47.9005C11.0837 48.2986 11.285 48.7803 11.3594 49.3458C11.4716 50.1978 11.2663 50.9281 10.7437 51.5367C10.2204 52.1414 9.47087 52.508 8.49492 52.6365L8.4194 52.6464ZM8.40495 51.5491C9.10206 51.4573 9.64052 51.2229 10.0203 50.8459C10.3997 50.465 10.5536 50.0034 10.4822 49.4613C10.4103 48.9152 10.1402 48.5095 9.6719 48.2441C9.1997 47.9793 8.57825 47.8976 7.80756 47.999C7.11819 48.0898 6.58217 48.3278 6.1995 48.7131C5.81245 49.095 5.65461 49.557 5.72599 50.0992C5.79584 50.6298 6.06325 51.03 6.52822 51.2997C6.99319 51.5695 7.61876 51.6526 8.40495 51.5491Z" fill="white"/>
<path d="M6.01197 38.6009L6.80285 38.7047C6.28684 38.1219 6.09667 37.4458 6.23233 36.6764C6.46499 35.3569 7.32672 34.8226 8.8175 35.0736L12.9433 35.8011L12.7551 36.8686L8.6235 36.1401C8.17274 36.0646 7.82166 36.1098 7.57029 36.2757C7.31959 36.4377 7.15659 36.7322 7.0813 37.1593C7.02025 37.5055 7.05899 37.8257 7.19752 38.1198C7.33604 38.414 7.54245 38.6606 7.81673 38.8597L12.2657 39.6441L12.0774 40.7117L5.83392 39.6108L6.01197 38.6009Z" fill="white"/>
</svg>
