<svg width="110" height="110" viewBox="0 0 110 110" fill="none" xmlns="http://www.w3.org/2000/svg">
<circle cx="55" cy="55" r="35" fill="#F8F8F8"/>
<path d="M57.8301 11.6104L57.9941 12.7354L58.2344 11.7217L59.9219 5.76855H60.8711L62.5176 11.7217L62.752 12.7529L62.9336 11.6045L64.2578 5.76855L65.3887 5.76855L63.3203 14.2998H62.2949L60.5371 8.08301L60.4023 7.43262L60.2676 8.08301L58.4453 14.2998H57.4199L55.3574 5.76855H56.4824L57.8301 11.6104Z" fill="white"/>
<path d="M72.865 15.5536L69.4434 14.5206L68.0313 16.4201L66.9207 16.0848L72.5053 8.85925L73.4476 9.14376L74.1062 18.2542L73.0012 17.9206L72.865 15.5536ZM70.0363 13.7325L72.8129 14.5708L72.5751 10.3309L70.0363 13.7325Z" fill="white"/>
<path d="M87.4663 18.5748L85.1823 17.0573L80.9735 23.3921L80.0413 22.7728L84.2501 16.438L81.971 14.9238L82.4833 14.1527L87.9786 17.8037L87.4663 18.5748Z" fill="white"/>
<path d="M93.077 32.9293C92.3145 33.4232 91.5644 33.6103 90.8266 33.4907C90.0943 33.3715 89.4319 32.9538 88.8392 32.2374C88.1968 31.4609 87.9598 30.6075 88.1282 29.6774C88.2991 28.7502 88.8511 27.9007 89.7841 27.1288L90.4162 26.6059C91.0272 26.1005 91.654 25.7644 92.2968 25.5976C92.9421 25.4339 93.5537 25.4501 94.1317 25.6462C94.7127 25.8398 95.221 26.2 95.6568 26.7267C96.2344 27.425 96.5019 28.1467 96.4592 28.8918C96.4196 29.6343 96.0837 30.3253 95.4518 30.9648L94.7309 30.0934C95.1924 29.5849 95.4359 29.1072 95.4615 28.6601C95.4896 28.2161 95.3169 27.7683 94.9434 27.3169C94.4853 26.7631 93.9208 26.4975 93.2501 26.5201C92.5818 26.5457 91.8699 26.871 91.1144 27.4959L90.4778 28.0226C89.7645 28.6127 89.3204 29.231 89.1456 29.8776C88.9707 30.5241 89.1048 31.1153 89.5481 31.651C89.9464 32.1326 90.3598 32.4117 90.7882 32.4882C91.222 32.5653 91.7447 32.4219 92.3562 32.058L93.077 32.9293Z" fill="white"/>
<path d="M95.4443 46.1857L95.0061 45.1432L98.6413 43.6151L96.9747 39.6503L93.3395 41.1784L92.9035 40.1414L100.768 36.8354L101.204 37.8725L97.8227 39.2939L99.4894 43.2586L102.871 41.8372L103.309 42.8797L95.4443 46.1857Z" fill="white"/>
<path d="M97.528 66.2442L98.0638 63.4354L98.9329 63.6012L98.3971 66.41L97.528 66.2442Z" fill="#FF7E21"/>
<path d="M81.6456 91.6646C81.0483 91.0797 80.6248 90.4682 80.375 89.8299C80.1281 89.1944 80.0677 88.5777 80.1941 87.9797C80.3204 87.3817 80.6241 86.8371 81.1051 86.3459C81.5752 85.8659 82.1092 85.5551 82.7071 85.4135C83.3078 85.2746 83.927 85.3151 84.5647 85.5349C85.2023 85.7603 85.8114 86.1516 86.3918 86.7091L86.8313 87.1395C87.4174 87.7135 87.8354 88.3223 88.0852 88.9661C88.335 89.6098 88.3968 90.2335 88.2705 90.837C88.1443 91.446 87.8462 91.9905 87.3761 92.4706C86.8978 92.959 86.3583 93.2726 85.7576 93.4115C85.1569 93.5559 84.5335 93.5086 83.8874 93.2695C83.2441 93.0331 82.6252 92.6239 82.0307 92.0418L81.6456 91.6646ZM82.8221 91.2504C83.545 91.9582 84.2411 92.3556 84.9105 92.4425C85.5826 92.5322 86.1743 92.316 86.6853 91.7941C87.1828 91.2862 87.381 90.6957 87.28 90.0228C87.1791 89.3554 86.7895 88.6813 86.1111 88.0006L85.6632 87.562C84.9627 86.876 84.268 86.4827 83.5791 86.3822C82.8903 86.2872 82.2931 86.4979 81.7875 87.0142C81.2791 87.5333 81.0739 88.1197 81.1719 88.7733C81.2727 89.4297 81.6721 90.1078 82.37 90.8076L82.8221 91.2504Z" fill="white"/>
<path d="M72.5866 101.512L69.792 96.4284C69.4078 95.7214 69.3132 95.0223 69.5082 94.3311C69.6999 93.6418 70.1572 93.0628 70.8801 92.594L71.1364 92.4398C71.9545 91.99 72.7279 91.8523 73.4568 92.0267C74.1856 92.201 74.7661 92.6731 75.1982 93.443L77.9984 98.5365L77.0229 99.0728L74.2396 94.0101C73.9423 93.4693 73.5619 93.1301 73.0985 92.9926C72.637 92.8585 72.1306 92.9429 71.5795 93.2459C71.0216 93.5526 70.6773 93.9358 70.5466 94.3955C70.4125 94.857 70.4941 95.3582 70.7915 95.899L73.5775 100.967L72.5866 101.512Z" fill="white"/>
<path d="M60.1504 99.0429L62.1105 98.6262L61.393 95.2505L62.4991 95.0154L64.2729 103.36L61.5104 103.947C60.5704 104.147 59.8028 104.087 59.2075 103.766C58.6083 103.446 58.2219 102.877 58.0481 102.06C57.9376 101.54 57.9828 101.057 58.1835 100.611C58.3804 100.166 58.7088 99.7946 59.1687 99.4971L56.4557 96.3718L56.4411 96.303L57.6218 96.0521L60.1504 99.0429ZM62.3018 99.526L60.611 99.8854C60.0647 100.002 59.661 100.235 59.4002 100.586C59.1355 100.938 59.0535 101.351 59.1542 101.824C59.2639 102.34 59.5027 102.703 59.8706 102.912C60.2348 103.122 60.7076 103.168 61.2892 103.048L62.9742 102.69L62.3018 99.526Z" fill="white"/>
<path d="M35.986 94.6676L38.6446 95.7202L38.3189 96.5428L35.6603 95.4902L35.986 94.6676Z" fill="#FF7E21"/>
<path d="M18.1754 75.9485L11.0058 77.9631L10.3035 76.9527L19.1147 74.682L19.6832 75.4999L14.4802 82.9622L13.7813 81.9566L18.1754 75.9485Z" fill="white"/>
<path d="M15.613 65.4877L15.9606 66.5576L7.84689 69.1939L7.49925 68.124L15.613 65.4877Z" fill="white"/>
<path d="M14.2881 54.8626L5.75875 55.0413L5.70832 52.6336C5.69277 51.8916 5.84306 51.232 6.15917 50.655C6.47527 50.0779 6.93277 49.6288 7.53164 49.3076C8.13043 48.9825 8.82228 48.8097 9.60718 48.7894L10.152 48.778C10.9565 48.7611 11.6647 48.9026 12.2766 49.2023C12.8884 49.4982 13.3624 49.9317 13.6987 50.5029C14.0348 51.0702 14.2148 51.7365 14.2387 52.5018L14.2881 54.8626ZM6.66077 53.8971L13.3448 53.7571L13.3201 52.5738C13.3019 51.7068 13.0183 51.0388 12.4693 50.5697C11.9202 50.0967 11.1477 49.8707 10.1519 49.8915L9.65393 49.9019C8.68539 49.9222 7.93839 50.1664 7.41292 50.6346C6.88346 51.0989 6.62359 51.749 6.63328 52.5849L6.66077 53.8971Z" fill="white"/>
<path d="M13.5643 37.396L12.57 40.957L15.4821 41.7701L16.637 37.6334L17.5231 37.8808L16.0656 43.101L7.84857 40.8068L9.29034 35.643L10.182 35.8919L9.04278 39.9722L11.684 40.7097L12.6782 37.1486L13.5643 37.396Z" fill="white"/>
<path d="M21.3138 24.6769C22.0196 25.1248 22.561 25.6349 22.938 26.2073C23.3117 26.7776 23.4989 27.3683 23.4997 27.9795C23.5004 28.5906 23.3166 29.1865 22.9482 29.7669C22.5882 30.3342 22.1305 30.7493 21.5751 31.0121C21.0164 31.2729 20.4023 31.362 19.7329 31.2795C19.0623 31.1917 18.3852 30.9355 17.7016 30.5109L17.1821 30.1813C16.4895 29.7417 15.9541 29.2331 15.5759 28.6553C15.1977 28.0776 15.0076 27.4804 15.0056 26.8638C15.0025 26.2419 15.1809 25.6473 15.5409 25.08C15.9072 24.5028 16.3697 24.0838 16.9284 23.8231C17.4859 23.557 18.1055 23.4737 18.7872 23.5732C19.4657 23.6706 20.1561 23.9422 20.8586 24.388L21.3138 24.6769ZM20.2491 25.3267C19.3948 24.7846 18.6313 24.5406 17.9585 24.5948C17.2824 24.6468 16.7486 24.9813 16.3572 25.598C15.9763 26.1983 15.9051 26.817 16.1438 27.4543C16.3813 28.0861 16.9025 28.6644 17.7076 29.1892L18.2369 29.5252C19.0648 30.0505 19.8261 30.2908 20.5208 30.2459C21.2143 30.1956 21.7546 29.8653 22.1418 29.2552C22.5312 28.6417 22.6099 28.0255 22.3782 27.4065C22.1431 26.7855 21.6115 26.2052 20.7834 25.6658L20.2491 25.3267Z" fill="white"/>
<path d="M52 64V48L62.5 55.5L52 64Z" fill="#FF7E21" stroke="#FF7E21" stroke-width="2" stroke-linejoin="round"/>
</svg>
