<svg width="206" height="56" viewBox="0 0 206 56" fill="none" xmlns="http://www.w3.org/2000/svg">
<path d="M13.9613 10.1027C16.8895 10.1027 19.3603 10.8347 21.3735 12.2989C23.4233 13.7631 24.8509 15.7213 25.6562 18.1738V10.487H30.6526V41.1244C30.6526 43.9064 30.0669 46.3772 28.8956 48.5367C27.7244 50.6963 26.0772 52.3801 23.9541 53.5881C21.831 54.796 19.3603 55.4 16.5418 55.4C12.4788 55.4 9.16616 54.4116 6.60388 52.435C4.04161 50.4951 2.41275 47.8596 1.71727 44.5286H6.65879C7.24446 46.5419 8.34257 48.1157 9.95314 49.2505C11.6003 50.4218 13.705 51.0075 16.2673 51.0075C18.9759 51.0075 21.2088 50.129 22.9658 48.372C24.7595 46.6517 25.6562 44.2358 25.6562 41.1244V32.9435C24.8509 35.396 23.4233 37.3542 21.3735 38.8184C19.3603 40.2826 16.8895 41.0146 13.9613 41.0146C11.2892 41.0146 8.90993 40.3924 6.82351 39.1478C4.73709 37.9032 3.08991 36.128 1.88199 33.822C0.710667 31.4793 0.125 28.734 0.125 25.5861C0.125 22.4382 0.710667 19.6929 1.88199 17.3502C3.08991 15.0075 4.73709 13.2141 6.82351 11.9695C8.90993 10.7249 11.2892 10.1027 13.9613 10.1027ZM15.3888 14.55C12.3141 14.55 9.84333 15.5383 7.97653 17.5149C6.14634 19.4549 5.23124 22.1453 5.23124 25.5861C5.23124 29.0269 6.14634 31.7356 7.97653 33.7122C9.84333 35.6521 12.3141 36.6222 15.3888 36.6222C17.3654 36.6222 19.1224 36.1647 20.6598 35.2495C22.2338 34.3344 23.46 33.0533 24.3385 31.4061C25.217 29.7223 25.6562 27.7823 25.6562 25.5861C25.6562 23.3899 25.217 21.4499 24.3385 19.7661C23.46 18.0823 22.2338 16.8012 20.6598 15.9227C19.1224 15.0075 17.3654 14.55 15.3888 14.55ZM43.601 0V40.6303H38.6046V0H43.601ZM79.3614 23.884C79.3614 24.9455 79.2881 25.8606 79.1418 26.6293H55.0381C55.1479 30.0701 56.1178 32.6507 57.9481 34.371C59.8149 36.0914 62.0843 36.9516 64.7565 36.9516C67.1723 36.9516 69.1854 36.3476 70.7961 35.1397C72.4433 33.8951 73.4498 32.2479 73.8159 30.1982H79.1418C78.7757 32.2846 77.9521 34.1514 76.671 35.7986C75.4264 37.4458 73.7975 38.7268 71.7844 39.642C69.7711 40.5571 67.5017 41.0146 64.9761 41.0146C62.0843 41.0146 59.522 40.3924 57.2893 39.1478C55.0564 37.9032 53.2994 36.128 52.0183 33.822C50.7737 31.4793 50.1515 28.734 50.1515 25.5861C50.1515 22.4382 50.7737 19.6929 52.0183 17.3502C53.2994 15.0075 55.0564 13.2141 57.2893 11.9695C59.522 10.7249 62.0843 10.1027 64.9761 10.1027C67.9043 10.1027 70.4482 10.7249 72.608 11.9695C74.8042 13.2141 76.4696 14.8795 77.6044 16.9659C78.7757 19.0523 79.3614 21.3584 79.3614 23.884ZM74.3101 24.2135C74.4199 21.9806 74.0538 20.1138 73.212 18.6131C72.3699 17.1124 71.2169 15.9958 69.7529 15.2638C68.2887 14.5318 66.6964 14.1657 64.9761 14.1657C62.2308 14.1657 59.9247 15.0259 58.058 16.7463C56.1912 18.4301 55.1844 20.9191 55.0381 24.2135H74.3101ZM98.2502 10.1027C101.179 10.1027 103.649 10.8347 105.662 12.2989C107.712 13.7631 109.14 15.7213 109.945 18.1738V10.487H114.942V40.6303H109.945V32.9435C109.14 35.396 107.712 37.3542 105.662 38.8184C103.649 40.2826 101.179 41.0146 98.2502 41.0146C95.5782 41.0146 93.1989 40.3924 91.1124 39.1478C89.026 37.9032 87.3788 36.128 86.1709 33.822C84.9996 31.4793 84.4139 28.734 84.4139 25.5861C84.4139 22.4382 84.9996 19.6929 86.1709 17.3502C87.3788 15.0075 89.026 13.2141 91.1124 11.9695C93.1989 10.7249 95.5782 10.1027 98.2502 10.1027ZM99.6777 14.55C96.603 14.55 94.1323 15.5383 92.2655 17.5149C90.4353 19.4549 89.5202 22.1453 89.5202 25.5861C89.5202 29.0269 90.4353 31.7356 92.2655 33.7122C94.1323 35.6521 96.603 36.6222 99.6777 36.6222C101.654 36.6222 103.411 36.1647 104.949 35.2495C106.523 34.3344 107.749 33.0533 108.627 31.4061C109.506 29.7223 109.945 27.7823 109.945 25.5861C109.945 23.3899 109.506 21.4499 108.627 19.7661C107.749 18.0823 106.523 16.8012 104.949 15.9227C103.411 15.0075 101.654 14.55 99.6777 14.55ZM159.955 9.99286C163.469 9.99286 166.287 11.1276 168.411 13.397C170.57 15.6299 171.649 18.8693 171.649 23.1153V40.6303H166.653V23.5546C166.653 20.5897 165.921 18.3203 164.457 16.7463C163.03 15.1722 161.053 14.3853 158.527 14.3853C155.892 14.3853 153.769 15.2638 152.158 17.0208C150.584 18.7411 149.797 21.2852 149.797 24.6527V40.6303H144.801V23.5546C144.801 20.5897 144.069 18.3203 142.605 16.7463C141.14 15.1722 139.164 14.3853 136.675 14.3853C134.003 14.3853 131.861 15.2638 130.251 17.0208C128.677 18.7411 127.89 21.2852 127.89 24.6527V40.6303H122.894V10.487H127.89V17.3502C128.622 14.971 129.921 13.1591 131.788 11.9146C133.692 10.6335 135.87 9.99286 138.322 9.99286C140.884 9.99286 143.099 10.6517 144.966 11.9695C146.869 13.2505 148.223 15.154 149.029 17.6797C149.871 15.2272 151.28 13.3421 153.256 12.0244C155.233 10.67 157.466 9.99286 159.955 9.99286ZM181.495 10.487L191.267 34.2063L200.326 10.487H205.873L187.972 54.9058H182.318L188.578 40.1361L175.893 10.487H181.495Z" fill="white"/>
<mask id="mask0_2291_140" style="mask-type:alpha" maskUnits="userSpaceOnUse" x="0" y="0" width="206" height="56">
<path d="M13.9613 10.1027C16.8895 10.1027 19.3603 10.8347 21.3735 12.2989C23.4233 13.7631 24.8509 15.7213 25.6562 18.1738V10.487H30.6526V41.1244C30.6526 43.9064 30.0669 46.3772 28.8956 48.5367C27.7244 50.6963 26.0772 52.3801 23.9541 53.5881C21.831 54.796 19.3603 55.4 16.5418 55.4C12.4788 55.4 9.16616 54.4116 6.60388 52.435C4.04161 50.4951 2.41275 47.8596 1.71727 44.5286H6.65879C7.24446 46.5419 8.34257 48.1157 9.95314 49.2505C11.6003 50.4218 13.705 51.0075 16.2673 51.0075C18.9759 51.0075 21.2088 50.129 22.9658 48.372C24.7595 46.6517 25.6562 44.2358 25.6562 41.1244V32.9435C24.8509 35.396 23.4233 37.3542 21.3735 38.8184C19.3603 40.2826 16.8895 41.0146 13.9613 41.0146C11.2892 41.0146 8.90993 40.3924 6.82351 39.1478C4.73709 37.9032 3.08991 36.128 1.88199 33.822C0.710667 31.4793 0.125 28.734 0.125 25.5861C0.125 22.4382 0.710667 19.6929 1.88199 17.3502C3.08991 15.0075 4.73709 13.2141 6.82351 11.9695C8.90993 10.7249 11.2892 10.1027 13.9613 10.1027ZM15.3888 14.55C12.3141 14.55 9.84333 15.5383 7.97653 17.5149C6.14634 19.4549 5.23124 22.1453 5.23124 25.5861C5.23124 29.0269 6.14634 31.7356 7.97653 33.7122C9.84333 35.6521 12.3141 36.6222 15.3888 36.6222C17.3654 36.6222 19.1224 36.1647 20.6598 35.2495C22.2338 34.3344 23.46 33.0533 24.3385 31.4061C25.217 29.7223 25.6562 27.7823 25.6562 25.5861C25.6562 23.3899 25.217 21.4499 24.3385 19.7661C23.46 18.0823 22.2338 16.8012 20.6598 15.9227C19.1224 15.0075 17.3654 14.55 15.3888 14.55ZM43.601 0V40.6303H38.6046V0H43.601ZM79.3614 23.884C79.3614 24.9455 79.2881 25.8606 79.1418 26.6293H55.0381C55.1479 30.0701 56.1178 32.6507 57.9481 34.371C59.8149 36.0914 62.0843 36.9516 64.7565 36.9516C67.1723 36.9516 69.1854 36.3476 70.7961 35.1397C72.4433 33.8951 73.4498 32.2479 73.8159 30.1982H79.1418C78.7757 32.2846 77.9521 34.1514 76.671 35.7986C75.4264 37.4458 73.7975 38.7268 71.7844 39.642C69.7711 40.5571 67.5017 41.0146 64.9761 41.0146C62.0843 41.0146 59.522 40.3924 57.2893 39.1478C55.0564 37.9032 53.2994 36.128 52.0183 33.822C50.7737 31.4793 50.1515 28.734 50.1515 25.5861C50.1515 22.4382 50.7737 19.6929 52.0183 17.3502C53.2994 15.0075 55.0564 13.2141 57.2893 11.9695C59.522 10.7249 62.0843 10.1027 64.9761 10.1027C67.9043 10.1027 70.4482 10.7249 72.608 11.9695C74.8042 13.2141 76.4696 14.8795 77.6044 16.9659C78.7757 19.0523 79.3614 21.3584 79.3614 23.884ZM74.3101 24.2135C74.4199 21.9806 74.0538 20.1138 73.212 18.6131C72.3699 17.1124 71.2169 15.9958 69.7529 15.2638C68.2887 14.5318 66.6964 14.1657 64.9761 14.1657C62.2308 14.1657 59.9247 15.0259 58.058 16.7463C56.1912 18.4301 55.1844 20.9191 55.0381 24.2135H74.3101ZM98.2502 10.1027C101.179 10.1027 103.649 10.8347 105.662 12.2989C107.712 13.7631 109.14 15.7213 109.945 18.1738V10.487H114.942V40.6303H109.945V32.9435C109.14 35.396 107.712 37.3542 105.662 38.8184C103.649 40.2826 101.179 41.0146 98.2502 41.0146C95.5782 41.0146 93.1989 40.3924 91.1124 39.1478C89.026 37.9032 87.3788 36.128 86.1709 33.822C84.9996 31.4793 84.4139 28.734 84.4139 25.5861C84.4139 22.4382 84.9996 19.6929 86.1709 17.3502C87.3788 15.0075 89.026 13.2141 91.1124 11.9695C93.1989 10.7249 95.5782 10.1027 98.2502 10.1027ZM99.6777 14.55C96.603 14.55 94.1323 15.5383 92.2655 17.5149C90.4353 19.4549 89.5202 22.1453 89.5202 25.5861C89.5202 29.0269 90.4353 31.7356 92.2655 33.7122C94.1323 35.6521 96.603 36.6222 99.6777 36.6222C101.654 36.6222 103.411 36.1647 104.949 35.2495C106.523 34.3344 107.749 33.0533 108.627 31.4061C109.506 29.7223 109.945 27.7823 109.945 25.5861C109.945 23.3899 109.506 21.4499 108.627 19.7661C107.749 18.0823 106.523 16.8012 104.949 15.9227C103.411 15.0075 101.654 14.55 99.6777 14.55ZM159.955 9.99286C163.469 9.99286 166.287 11.1276 168.411 13.397C170.57 15.6299 171.649 18.8693 171.649 23.1153V40.6303H166.653V23.5546C166.653 20.5897 165.921 18.3203 164.457 16.7463C163.03 15.1722 161.053 14.3853 158.527 14.3853C155.892 14.3853 153.769 15.2638 152.158 17.0208C150.584 18.7411 149.797 21.2852 149.797 24.6527V40.6303H144.801V23.5546C144.801 20.5897 144.069 18.3203 142.605 16.7463C141.14 15.1722 139.164 14.3853 136.675 14.3853C134.003 14.3853 131.861 15.2638 130.251 17.0208C128.677 18.7411 127.89 21.2852 127.89 24.6527V40.6303H122.894V10.487H127.89V17.3502C128.622 14.971 129.921 13.1591 131.788 11.9146C133.692 10.6335 135.87 9.99286 138.322 9.99286C140.884 9.99286 143.099 10.6517 144.966 11.9695C146.869 13.2505 148.223 15.154 149.029 17.6797C149.871 15.2272 151.28 13.3421 153.256 12.0244C155.233 10.67 157.466 9.99286 159.955 9.99286ZM181.495 10.487L191.267 34.2063L200.326 10.487H205.873L187.972 54.9058H182.318L188.578 40.1361L175.893 10.487H181.495Z" fill="black"/>
</mask>
<g mask="url(#mask0_2291_140)">
<path d="M32.781 39.6622L20.3385 42.6172L21.7569 48.5896L34.1994 45.6346L32.781 39.6622Z" fill="#FF7E21" stroke="white"/>
</g>
</svg>
