<svg width="259" height="70" viewBox="0 0 259 70" fill="none" xmlns="http://www.w3.org/2000/svg">
<path d="M17.3671 12.6807C21.0426 12.6807 24.1438 13.5995 26.6709 15.4374C29.2437 17.2753 31.0355 19.7332 32.0464 22.8115V13.1631H38.3178V51.6188C38.3178 55.1107 37.5826 58.2119 36.1125 60.9226C34.6423 63.6333 32.5748 65.7468 29.91 67.263C27.2451 68.7791 24.1438 69.5372 20.6062 69.5372C15.5063 69.5372 11.3483 68.2967 8.1322 65.8157C4.91607 63.3807 2.87155 60.0727 1.99859 55.8917H8.20112C8.93624 58.4187 10.3146 60.3942 12.3361 61.8185C14.4036 63.2887 17.0455 64.0239 20.2616 64.0239C23.6614 64.0239 26.4641 62.9212 28.6695 60.7159C30.9208 58.5565 32.0464 55.5242 32.0464 51.6188V41.3502C31.0355 44.4285 29.2437 46.8864 26.6709 48.7243C24.1438 50.5622 21.0426 51.481 17.3671 51.481C14.0131 51.481 11.0267 50.7 8.40787 49.1378C5.78903 47.5756 3.72152 45.3474 2.20534 42.4529C0.735121 39.5123 0 36.0665 0 32.1153C0 28.1641 0.735121 24.7183 2.20534 21.7778C3.72152 18.8372 5.78903 16.5861 8.40787 15.0239C11.0267 13.4617 14.0131 12.6807 17.3671 12.6807ZM19.1589 18.263C15.2996 18.263 12.1983 19.5035 9.85513 21.9845C7.5579 24.4195 6.40928 27.7964 6.40928 32.1153C6.40928 36.4342 7.5579 39.834 9.85513 42.315C12.1983 44.75 15.2996 45.9676 19.1589 45.9676C21.6399 45.9676 23.8453 45.3934 25.7749 44.2447C27.7506 43.096 29.2897 41.488 30.3924 39.4205C31.4951 37.307 32.0464 34.872 32.0464 32.1153C32.0464 29.3586 31.4951 26.9236 30.3924 24.8101C29.2897 22.6966 27.7506 21.0886 25.7749 19.9859C23.8453 18.8372 21.6399 18.263 19.1589 18.263ZM54.5705 0V50.9986H48.299V0H54.5705ZM99.4564 29.9789C99.4564 31.3112 99.3644 32.4599 99.1807 33.4247H68.9262C69.064 37.7436 70.2814 40.9827 72.5788 43.142C74.9219 45.3013 77.7704 46.3811 81.1245 46.3811C84.1568 46.3811 86.6836 45.623 88.7053 44.1069C90.7729 42.5447 92.0363 40.4772 92.4958 37.9043H99.1807C98.7212 40.5232 97.6874 42.8664 96.0795 44.9339C94.5173 47.0014 92.4727 48.6094 89.9458 49.7581C87.4188 50.9067 84.5703 51.481 81.4001 51.481C77.7704 51.481 74.5542 50.7 71.7518 49.1378C68.9491 47.5756 66.7437 45.3474 65.1357 42.4529C63.5735 39.5123 62.7926 36.0665 62.7926 32.1153C62.7926 28.1641 63.5735 24.7183 65.1357 21.7778C66.7437 18.8372 68.9491 16.5861 71.7518 15.0239C74.5542 13.4617 77.7704 12.6807 81.4001 12.6807C85.0756 12.6807 88.2687 13.4617 90.9796 15.0239C93.7363 16.5861 95.8267 18.6765 97.251 21.2953C98.7212 23.9142 99.4564 26.8087 99.4564 29.9789ZM93.116 30.3924C93.2539 27.5897 92.7943 25.2465 91.7377 23.3629C90.6808 21.4792 89.2336 20.0777 87.3959 19.1589C85.5581 18.2401 83.5595 17.7806 81.4001 17.7806C77.9543 17.7806 75.0598 18.8603 72.7166 21.0197C70.3734 23.1332 69.1098 26.2574 68.9262 30.3924H93.116ZM123.165 12.6807C126.841 12.6807 129.942 13.5995 132.469 15.4374C135.042 17.2753 136.834 19.7332 137.845 22.8115V13.1631H144.116V50.9986H137.845V41.3502C136.834 44.4285 135.042 46.8864 132.469 48.7243C129.942 50.5622 126.841 51.481 123.165 51.481C119.812 51.481 116.825 50.7 114.206 49.1378C111.587 47.5756 109.52 45.3474 108.004 42.4529C106.533 39.5123 105.798 36.0665 105.798 32.1153C105.798 28.1641 106.533 24.7183 108.004 21.7778C109.52 18.8372 111.587 16.5861 114.206 15.0239C116.825 13.4617 119.812 12.6807 123.165 12.6807ZM124.957 18.263C121.098 18.263 117.997 19.5035 115.653 21.9845C113.356 24.4195 112.208 27.7964 112.208 32.1153C112.208 36.4342 113.356 39.834 115.653 42.315C117.997 44.75 121.098 45.9676 124.957 45.9676C127.438 45.9676 129.644 45.3934 131.573 44.2447C133.549 43.096 135.088 41.488 136.191 39.4205C137.293 37.307 137.845 34.872 137.845 32.1153C137.845 29.3586 137.293 26.9236 136.191 24.8101C135.088 22.6966 133.549 21.0886 131.573 19.9859C129.644 18.8372 127.438 18.263 124.957 18.263ZM200.616 12.5429C205.027 12.5429 208.565 13.9672 211.23 16.8157C213.94 19.6184 215.294 23.6845 215.294 29.014V50.9986H209.024V29.5654C209.024 25.8439 208.105 22.9954 206.267 21.0197C204.476 19.044 201.995 18.0562 198.824 18.0562C195.516 18.0562 192.852 19.1589 190.83 21.3643C188.854 23.5236 187.867 26.7169 187.867 30.9437V50.9986H181.595V29.5654C181.595 25.8439 180.676 22.9954 178.838 21.0197C177.001 19.044 174.52 18.0562 171.395 18.0562C168.041 18.0562 165.354 19.1589 163.332 21.3643C161.356 23.5236 160.369 26.7169 160.369 30.9437V50.9986H154.097V13.1631H160.369V21.7778C161.288 18.7914 162.919 16.5172 165.262 14.955C167.651 13.347 170.385 12.5429 173.463 12.5429C176.679 12.5429 179.459 13.3699 181.802 15.0239C184.191 16.6319 185.891 19.0211 186.902 22.1913C187.958 19.1129 189.727 16.7468 192.208 15.0928C194.689 13.3928 197.492 12.5429 200.616 12.5429ZM227.652 13.1631L239.918 42.9353L251.29 13.1631H258.252L235.783 68.917H228.686L236.543 50.3783L220.622 13.1631H227.652Z" fill="white"/>
<mask id="mask0_2291_491" style="mask-type:alpha" maskUnits="userSpaceOnUse" x="0" y="0" width="259" height="70">
<path d="M17.3671 12.6807C21.0426 12.6807 24.1438 13.5995 26.6709 15.4374C29.2437 17.2753 31.0355 19.7332 32.0464 22.8115V13.1631H38.3178V51.6188C38.3178 55.1107 37.5826 58.2119 36.1125 60.9226C34.6423 63.6333 32.5748 65.7468 29.91 67.263C27.2451 68.7791 24.1438 69.5372 20.6062 69.5372C15.5063 69.5372 11.3483 68.2967 8.1322 65.8157C4.91607 63.3807 2.87155 60.0727 1.99859 55.8917H8.20112C8.93624 58.4187 10.3146 60.3942 12.3361 61.8185C14.4036 63.2887 17.0455 64.0239 20.2616 64.0239C23.6614 64.0239 26.4641 62.9212 28.6695 60.7159C30.9208 58.5565 32.0464 55.5242 32.0464 51.6188V41.3502C31.0355 44.4285 29.2437 46.8864 26.6709 48.7243C24.1438 50.5622 21.0426 51.481 17.3671 51.481C14.0131 51.481 11.0267 50.7 8.40787 49.1378C5.78903 47.5756 3.72152 45.3474 2.20534 42.4529C0.735121 39.5123 0 36.0665 0 32.1153C0 28.1641 0.735121 24.7183 2.20534 21.7778C3.72152 18.8372 5.78903 16.5861 8.40787 15.0239C11.0267 13.4617 14.0131 12.6807 17.3671 12.6807ZM19.1589 18.263C15.2996 18.263 12.1983 19.5035 9.85513 21.9845C7.5579 24.4195 6.40928 27.7964 6.40928 32.1153C6.40928 36.4342 7.5579 39.834 9.85513 42.315C12.1983 44.75 15.2996 45.9676 19.1589 45.9676C21.6399 45.9676 23.8453 45.3934 25.7749 44.2447C27.7506 43.096 29.2897 41.488 30.3924 39.4205C31.4951 37.307 32.0464 34.872 32.0464 32.1153C32.0464 29.3586 31.4951 26.9236 30.3924 24.8101C29.2897 22.6966 27.7506 21.0886 25.7749 19.9859C23.8453 18.8372 21.6399 18.263 19.1589 18.263ZM54.5705 0V50.9986H48.299V0H54.5705ZM99.4564 29.9789C99.4564 31.3112 99.3644 32.4599 99.1807 33.4247H68.9262C69.064 37.7436 70.2814 40.9827 72.5788 43.142C74.9219 45.3013 77.7704 46.3811 81.1245 46.3811C84.1568 46.3811 86.6836 45.623 88.7053 44.1069C90.7729 42.5447 92.0363 40.4772 92.4958 37.9043H99.1807C98.7212 40.5232 97.6874 42.8664 96.0795 44.9339C94.5173 47.0014 92.4727 48.6094 89.9458 49.7581C87.4188 50.9067 84.5703 51.481 81.4001 51.481C77.7704 51.481 74.5542 50.7 71.7518 49.1378C68.9491 47.5756 66.7437 45.3474 65.1357 42.4529C63.5735 39.5123 62.7926 36.0665 62.7926 32.1153C62.7926 28.1641 63.5735 24.7183 65.1357 21.7778C66.7437 18.8372 68.9491 16.5861 71.7518 15.0239C74.5542 13.4617 77.7704 12.6807 81.4001 12.6807C85.0756 12.6807 88.2687 13.4617 90.9796 15.0239C93.7363 16.5861 95.8267 18.6765 97.251 21.2953C98.7212 23.9142 99.4564 26.8087 99.4564 29.9789ZM93.116 30.3924C93.2539 27.5897 92.7943 25.2465 91.7377 23.3629C90.6808 21.4792 89.2336 20.0777 87.3959 19.1589C85.5581 18.2401 83.5595 17.7806 81.4001 17.7806C77.9543 17.7806 75.0598 18.8603 72.7166 21.0197C70.3734 23.1332 69.1098 26.2574 68.9262 30.3924H93.116ZM123.165 12.6807C126.841 12.6807 129.942 13.5995 132.469 15.4374C135.042 17.2753 136.834 19.7332 137.845 22.8115V13.1631H144.116V50.9986H137.845V41.3502C136.834 44.4285 135.042 46.8864 132.469 48.7243C129.942 50.5622 126.841 51.481 123.165 51.481C119.812 51.481 116.825 50.7 114.206 49.1378C111.587 47.5756 109.52 45.3474 108.004 42.4529C106.533 39.5123 105.798 36.0665 105.798 32.1153C105.798 28.1641 106.533 24.7183 108.004 21.7778C109.52 18.8372 111.587 16.5861 114.206 15.0239C116.825 13.4617 119.812 12.6807 123.165 12.6807ZM124.957 18.263C121.098 18.263 117.997 19.5035 115.653 21.9845C113.356 24.4195 112.208 27.7964 112.208 32.1153C112.208 36.4342 113.356 39.834 115.653 42.315C117.997 44.75 121.098 45.9676 124.957 45.9676C127.438 45.9676 129.644 45.3934 131.573 44.2447C133.549 43.096 135.088 41.488 136.191 39.4205C137.293 37.307 137.845 34.872 137.845 32.1153C137.845 29.3586 137.293 26.9236 136.191 24.8101C135.088 22.6966 133.549 21.0886 131.573 19.9859C129.644 18.8372 127.438 18.263 124.957 18.263ZM200.616 12.5429C205.027 12.5429 208.565 13.9672 211.23 16.8157C213.94 19.6184 215.294 23.6845 215.294 29.014V50.9986H209.024V29.5654C209.024 25.8439 208.105 22.9954 206.267 21.0197C204.476 19.044 201.995 18.0562 198.824 18.0562C195.516 18.0562 192.852 19.1589 190.83 21.3643C188.854 23.5236 187.867 26.7169 187.867 30.9437V50.9986H181.595V29.5654C181.595 25.8439 180.676 22.9954 178.838 21.0197C177.001 19.044 174.52 18.0562 171.395 18.0562C168.041 18.0562 165.354 19.1589 163.332 21.3643C161.356 23.5236 160.369 26.7169 160.369 30.9437V50.9986H154.097V13.1631H160.369V21.7778C161.288 18.7914 162.919 16.5172 165.262 14.955C167.651 13.347 170.385 12.5429 173.463 12.5429C176.679 12.5429 179.459 13.3699 181.802 15.0239C184.191 16.6319 185.891 19.0211 186.902 22.1913C187.958 19.1129 189.727 16.7468 192.208 15.0928C194.689 13.3928 197.492 12.5429 200.616 12.5429ZM227.652 13.1631L239.918 42.9353L251.29 13.1631H258.252L235.783 68.917H228.686L236.543 50.3783L220.622 13.1631H227.652Z" fill="black"/>
</mask>
<g mask="url(#mask0_2291_491)">
<path d="M40.9894 49.7831L25.3717 53.4922L27.1521 60.9887L42.7698 57.2796L40.9894 49.7831Z" fill="#FF7E21" stroke="white" stroke-width="1.25519"/>
</g>
</svg>
